<svg width="48" height="48" viewBox="0 0 48 48" fill="none" xmlns="http://www.w3.org/2000/svg">
<path d="M45 20.8001C45 21.3001 44.7 21.7001 44.3 21.9001C43.6 22.1001 42.6 22.0001 41.9 21.7001C40.8 21.3001 39.8 20.7001 38.6 20.9001C37.7 21.1001 37 21.7001 36.1 21.8001C35 21.9001 34.1 22.0001 33.2 21.4001C31.6 20.4001 29.6 19.7001 27.9 20.5001C27.3 20.8001 26.9 21.2001 26.3 21.5001C25.5 21.9001 24.5 22.0001 23.6 21.8001C21.8 21.3001 19.9 19.8001 18.6 19.8001C17.3 19.8001 16.4 20.7001 15.3 21.3001C13.7 22.2001 11.7 22.0001 10 21.3001C8.8 20.7001 8.1 19.8001 7 19.8001C5.7 19.8001 4.7 21.2001 4 21.7001C3.6 22.0001 3 21.7001 3 21.2001V9.90011C3 9.50011 3.1 9.00011 3.4 8.70011C4 7.90011 5.2 6.90011 6.3 7.00011C7.6 7.10011 8.6 7.60011 9.8 8.20011C11.5 9.00011 13.4 9.50011 14.9 8.60011C16 8.00011 17.2 7.30011 18.5 7.10011C20.3 6.90011 21.7 8.70011 23.5 9.20011C24.4 9.40011 25.4 9.30011 26.2 8.90011C26.7 8.60011 27.2 8.20011 27.8 7.90011C29.5 7.10011 31.5 7.80011 33.1 8.80011C34.1 9.20011 35 9.00011 36.1 8.90011C37 8.80011 37.7 8.20011 38.6 8.00011C39.7 7.80011 40.8 8.40011 41.9 8.80011C42.6 9.10011 43.6 9.20011 44.3 9.00011C44.6 8.90011 45 9.20011 45 9.60011V20.8001Z" fill="#D84315"/>
<path d="M45 39.8C45 40.3 44.7 40.7 44.3 40.9C43.6 41.1 42.6 41 41.9 40.7C40.8 40.3 39.8 39.7 38.6 39.9C37.7 40.1 37 40.7 36.1 40.8C35 40.9 34.1 41 33.2 40.4C31.6 39.4 29.6 38.7 27.9 39.5C27.3 39.8 26.9 40.2 26.3 40.5C25.5 40.9 24.5 41 23.6 40.8C21.8 40.3 19.9 38.8 18.6 38.8C17.3 38.8 16.4 39.7 15.3 40.4C13.7 41.3 11.7 41.1 10 40.4C8.8 39.8 8.1 38.9 7 38.9C5.7 38.9 4.7 40.3 4 40.8C3.6 41.1 3 40.8 3 40.3V28.7C3 28.3 3.1 27.9 3.4 27.5C4.1 26.6 5.2 25.9 6.4 26C7.7 26.1 8.7 26.4 9.9 27C11.6 27.8 13.5 28.3 15 27.4C16.1 26.8 17.3 26.3 18.6 26.1C20.4 25.9 21.8 27.5 23.6 28C24.5 28.3 25.5 28.1 26.3 27.7C26.8 27.4 27.3 27 27.9 26.7C29.6 25.9 31.6 26.6 33.2 27.6C34.1 28.2 35 28 36.1 27.9C37 27.8 37.7 27.2 38.6 27C39.7 26.8 40.8 27.4 41.9 27.8C42.6 28.1 43.6 28.2 44.3 28C44.7 27.9 45.1 28.2 45.1 28.6L45 39.8Z" fill="#FF5722"/>
<path d="M44.3 18.6C43.9 18.7 43.4 18.7 43 18.7C42.6 18.7 42.1 18.5 41.6 18.3C41.3 18.1 40.9 18 40.5 17.8C39.8 17.5 39.1 17.3 38.5 17.4C38.3 17.4 38.1 17.5 37.9 17.6C37.6 17.7 37.4 17.8 37.1 17.9C36.4 18.1 35.7 18.3 34.9 18.3C34.5 18.3 34.2 18.2 33.7 18.1C33.3 18 32.9 17.8 32.7 17.6C32.1 17.2 31.7 17 31.2 16.8C30.1 16.4 28.9 16.3 27.9 16.8L27 17.3L26.6 17.6L26.4 17.7H26.3H26.2L26 17.9C25.1 18.3 24.2 18.2 23.3 17.9C22.5 17.6 21.9 17.1 21.4 16.7C20.8 16.3 20.3 16 19.7 15.8C19.1 15.6 18.5 15.6 18 15.8C17.4 16 16.9 16.3 16.4 16.7L16 17L15.6 17.3L15.2 17.6L15.1 17.7C15 17.8 15 17.8 15 17.8C14.9 17.8 14.9 17.9 14.8 17.9C14.1 18.2 13.4 18.2 12.8 18.2C12.2 18.2 11.5 18 11 17.8C10.4 17.6 10 17.3 9.5 17C8.6 16.4 7.8 16 6.9 15.8C6.1 15.6 5.3 15.7 4.8 15.9C4.2 16.1 3.8 16.3 3.5 16.5C3.1 16.7 3 16.8 3 16.8C3 16.8 3.1 16.7 3.4 16.5C3.6 16.3 4 16 4.6 15.8C5.2 15.6 6 15.4 6.8 15.5C7.7 15.6 8.6 16 9.5 16.5C10 16.7 10.5 17 11 17.2C11.5 17.4 12.1 17.5 12.6 17.5C13.2 17.5 13.8 17.4 14.2 17.2C14.3 17.2 14.3 17.1 14.4 17.1C14.4 17.1 14.5 17 14.5 17.1L14.6 17L15 16.7L15.4 16.4L15.8 16.1C16.3 15.7 16.9 15.2 17.7 15C18.4 14.7 19.3 14.7 20.1 14.9C21.7 15.2 22.9 16.3 23.9 16.7C24.4 16.9 24.9 16.8 25.3 16.6C25.9 16.2 26.4 15.8 27 15.4C28.5 14.6 30.3 14.6 31.7 15C32.4 15.2 33.2 15.6 33.7 15.9C34 16 34.2 16.1 34.4 16.2C34.5 16.2 34.8 16.3 35 16.2C35.4 16.2 35.9 16.1 36.3 15.9C36.5 15.8 36.8 15.7 37 15.5C37.3 15.4 37.6 15.2 38 15.1C38.7 14.9 39.4 14.9 40 15C40.6 15.1 41.1 15.3 41.6 15.4C42 15.6 42.4 15.7 42.8 15.8C43 15.9 43.2 15.9 43.4 15.9C43.6 15.9 43.6 15.9 43.7 15.9C43.9 15.8 44.1 15.8 44.3 15.7C44.4 15.7 44.8 15.4 45.2 15.2V18.6H45.1C44.7 18.5 44.5 18.6 44.3 18.6ZM4.2 10.5C3.7 10.6 3.3 10.8 3 11V14.9C3.6 14.4 4.2 13.8 4.3 13.7C4.5 13.6 4.8 13.4 5.1 13.2C5.5 13 6 12.9 6.6 13C7.2 13.1 7.9 13.4 8.9 13.9C9.1 14 9.4 14.1 9.6 14.3L9.8 14.4L10 14.5H10.1C10.2 14.5 10.4 14.6 10.6 14.7C11.3 14.9 12 15.1 12.7 15.1C13.4 15.1 14.2 15 15 14.6C15.8 14.2 16.3 13.7 16.8 13.3C17.3 12.9 17.7 12.6 18.2 12.4C18.3 12.4 18.4 12.3 18.6 12.3H18.7H18.8C18.9 12.3 19 12.3 19 12.3C19.2 12.3 19.5 12.3 19.7 12.4C20.2 12.5 20.8 12.8 21.4 13.1C22 13.4 22.6 13.9 23.4 14.2C24.2 14.5 25.2 14.5 26 14.1C26.8 13.7 27.2 13.2 27.8 12.9C28.8 12.3 30.1 12.3 31.3 12.6C32.4 12.9 33.6 13.7 35 13.8C35.7 13.8 36.3 13.7 36.9 13.4C37.5 13.1 37.9 12.9 38.4 12.8C39.3 12.5 40.3 12.8 41.1 13C41.9 13.3 42.6 13.6 43.3 13.7C43.6 13.7 43.9 13.7 44.2 13.6C44.4 13.5 44.6 13.4 44.8 13.4C45.1 13.3 45.3 13.2 45.3 13.2C45.3 13.2 45.1 13.2 44.8 13.3C44.5 13.3 44 13.5 43.4 13.4C42.8 13.4 42.2 13 41.4 12.6C40.6 12.3 39.6 11.9 38.4 12.2C37.8 12.3 37.3 12.6 36.8 12.8C36.3 13 35.8 13.1 35.3 13C34.8 12.9 34.2 12.7 33.7 12.4C33.2 12.1 32.5 11.8 31.9 11.6C30.6 11.2 28.9 11 27.5 11.7C26.8 12 26.2 12.6 25.8 12.7C25.3 12.9 24.8 12.9 24.3 12.6C23.3 12.1 22.2 11 20.5 10.5C20.1 10.4 19.7 10.3 19.2 10.3C19.1 10.3 19 10.3 18.9 10.3C18.8 10.3 18.9 10.3 18.7 10.3H18.5C18.3 10.3 18.1 10.4 17.9 10.4C17.1 10.7 16.4 11.1 15.8 11.5C15.2 11.9 14.8 12.3 14.4 12.4C14 12.6 13.5 12.6 13.1 12.6C12.6 12.6 12.2 12.4 11.8 12.3C11.7 12.3 11.6 12.2 11.5 12.2H11.4C11.5 12.3 11.4 12.2 11.5 12.2L10.8 12C10.6 11.9 10.3 11.7 10.1 11.6C9.3 11.1 8.2 10.5 7.1 10.3C6 10 4.9 10.2 4.2 10.5ZM44.9 37.5L45 34.1C44.6 34.4 44.2 34.6 44.1 34.6C43.9 34.6 43.7 34.7 43.5 34.8C43.4 34.8 43.4 34.8 43.2 34.8C43 34.8 42.8 34.8 42.6 34.7C42.2 34.6 41.9 34.4 41.4 34.3C41 34.1 40.4 34 39.8 33.9C39.2 33.8 38.5 33.8 37.8 34C37.5 34.1 37.1 34.2 36.8 34.4C36.6 34.5 36.3 34.6 36.1 34.8C35.7 35 35.3 35.1 34.8 35.1C34.6 35.1 34.3 35.1 34.2 35.1C34 35.1 33.8 35 33.5 34.8C33 34.5 32.2 34.1 31.5 33.9C30.1 33.5 28.3 33.4 26.8 34.3C26.2 34.7 25.7 35.1 25.1 35.5C24.7 35.7 24.1 35.8 23.7 35.6C22.6 35.2 21.4 34.1 19.9 33.8C19.1 33.6 18.3 33.7 17.5 33.9C16.8 34.2 16.2 34.6 15.6 35L15.2 35.3L14.8 35.6L14.4 35.9L14.3 36C14.4 36 14.3 36 14.2 36C14.1 36 14.1 36.1 14 36.1C13.5 36.3 12.9 36.4 12.4 36.4C11.8 36.4 11.3 36.3 10.8 36.1C10.3 35.9 9.8 35.7 9.3 35.4C8.4 34.9 7.4 34.5 6.6 34.4C5.7 34.3 4.9 34.4 4.4 34.7C3.8 34.9 3.4 35.2 3.2 35.4C3.1 35.7 3 35.8 3 35.8C3 35.8 3.1 35.7 3.4 35.5C3.7 35.3 4.1 35.1 4.7 34.9C5.3 34.7 6 34.6 6.8 34.8C7.6 35 8.5 35.4 9.4 36C9.9 36.2 10.3 36.6 10.9 36.8C11.5 37 12.1 37.2 12.7 37.2C13.3 37.2 14 37.2 14.7 36.9C14.8 36.9 14.9 36.8 14.9 36.8C15 36.8 14.9 36.8 15 36.7L15.1 36.6L15.5 36.3L16 36L16.4 35.7C16.9 35.3 17.4 35 18 34.8C18.5 34.6 19.2 34.7 19.7 34.8C20.3 35 20.8 35.3 21.4 35.7C22 36.1 22.5 36.5 23.3 36.9C24.1 37.3 25.1 37.3 26 36.9L26.2 36.8H26.3H26.4L26.6 36.7L27 36.4L27.8 35.9C28.8 35.4 30 35.5 31.1 35.9C31.7 36.1 32 36.3 32.6 36.7C32.9 36.9 33.2 37.1 33.6 37.2C34.1 37.4 34.4 37.4 34.8 37.4C35.6 37.4 36.3 37.3 37 37C37.3 36.9 37.5 36.8 37.8 36.7C38 36.6 38.2 36.6 38.4 36.5C39.1 36.4 39.7 36.6 40.4 36.9C40.8 37.1 41.1 37.2 41.5 37.4C42 37.6 42.4 37.7 42.9 37.8C43.3 37.9 43.8 37.8 44.2 37.7C44.5 37.6 44.7 37.5 44.9 37.5ZM4.2 29.5C3.7 29.6 3.3 29.8 3 30V33.9C3.6 33.4 4.2 32.8 4.3 32.7C4.5 32.6 4.8 32.4 5.1 32.2C5.5 32 6 31.9 6.6 32C7.2 32.1 7.9 32.4 8.9 32.9C9.1 33 9.4 33.1 9.6 33.3L9.8 33.4L10 33.5H10.1C10.2 33.5 10.4 33.6 10.6 33.7C11.3 33.9 12 34.1 12.7 34.1C13.4 34.1 14.2 34 15 33.6C15.8 33.2 16.3 32.7 16.8 32.3C17.3 31.9 17.7 31.6 18.2 31.4C18.3 31.4 18.4 31.3 18.6 31.3H18.7H18.8C18.9 31.3 19 31.3 19 31.3C19.2 31.3 19.5 31.3 19.7 31.4C20.2 31.5 20.8 31.8 21.4 32.1C22 32.4 22.6 32.9 23.4 33.2C24.2 33.5 25.2 33.5 26 33.1C26.8 32.7 27.2 32.2 27.8 31.9C28.8 31.3 30.1 31.3 31.3 31.6C32.4 31.9 33.6 32.7 35 32.8C35.7 32.8 36.3 32.7 36.9 32.4C37.5 32.1 37.9 31.9 38.4 31.8C39.3 31.5 40.3 31.8 41.1 32C41.9 32.3 42.6 32.6 43.3 32.7C43.6 32.7 43.9 32.7 44.2 32.6C44.4 32.5 44.6 32.4 44.8 32.4C45.1 32.3 45.3 32.2 45.3 32.2C45.3 32.2 45.1 32.2 44.8 32.3C44.5 32.3 44 32.5 43.4 32.4C42.8 32.4 42.2 32 41.4 31.6C40.6 31.3 39.6 30.9 38.4 31.2C37.8 31.3 37.3 31.6 36.8 31.8C36.3 32 35.8 32.1 35.3 32C34.8 31.9 34.2 31.7 33.7 31.4C33.2 31.1 32.5 30.8 31.9 30.6C30.6 30.2 28.9 30 27.5 30.7C26.8 31 26.2 31.6 25.8 31.7C25.3 31.9 24.8 31.9 24.3 31.6C23.3 31.1 22.2 30 20.5 29.5C20.1 29.4 19.7 29.3 19.2 29.3C19.1 29.3 19 29.3 18.9 29.3C18.8 29.3 18.9 29.3 18.7 29.3H18.5C18.3 29.3 18.1 29.4 17.9 29.4C17.1 29.7 16.4 30.1 15.8 30.5C15.2 30.9 14.8 31.3 14.4 31.4C14 31.6 13.5 31.6 13.1 31.6C12.6 31.6 12.2 31.4 11.8 31.3C11.7 31.3 11.6 31.2 11.5 31.2H11.4C11.5 31.3 11.4 31.2 11.5 31.2L10.8 31C10.6 30.9 10.3 30.7 10.1 30.6C9.3 30.1 8.2 29.5 7.1 29.3C6 29 4.9 29.2 4.2 29.5Z" fill="#FFF3E0"/>
</svg>
