<svg width="48" height="48" viewBox="0 0 48 48" fill="none" xmlns="http://www.w3.org/2000/svg">
<path d="M41 31.5C41 32.881 39.881 34 38.5 34H9.5C8.119 34 7 32.881 7 31.5C7 30.119 8.119 29 9.5 29H38.5C39.881 29 41 30.119 41 31.5ZM38.5 18C38.5 18 38.248 17.7 36.5 17C34 16 13 16 11.5 17C10.456 17.696 9.5 18 9.5 18C8.119 18 7 19.119 7 20.5C7 21.881 8.119 23 9.5 23H38.5C39.881 23 41 21.881 41 20.5C41 19.119 39.881 18 38.5 18Z" fill="#68362B"/>
<path d="M8 35V39.75C8 40.993 9.007 42 10.25 42H37.75C38.993 42 40 40.993 40 39.75V35H8ZM24 6C15.164 6 8 10.478 8 16H40C40 10.478 32.837 6 24 6Z" fill="#FFC107"/>
<path d="M7 24H41V28H7V24Z" fill="#FF3D00"/>
<path d="M16 12C15.7348 12 15.4804 12.1054 15.2929 12.2929C15.1054 12.4804 15 12.7348 15 13C15 13.2652 15.1054 13.5196 15.2929 13.7071C15.4804 13.8946 15.7348 14 16 14C16.2652 14 16.5196 13.8946 16.7071 13.7071C16.8946 13.5196 17 13.2652 17 13C17 12.7348 16.8946 12.4804 16.7071 12.2929C16.5196 12.1054 16.2652 12 16 12ZM18 9C17.7348 9 17.4804 9.10536 17.2929 9.29289C17.1054 9.48043 17 9.73478 17 10C17 10.2652 17.1054 10.5196 17.2929 10.7071C17.4804 10.8946 17.7348 11 18 11C18.2652 11 18.5196 10.8946 18.7071 10.7071C18.8946 10.5196 19 10.2652 19 10C19 9.73478 18.8946 9.48043 18.7071 9.29289C18.5196 9.10536 18.2652 9 18 9ZM20 12C19.7348 12 19.4804 12.1054 19.2929 12.2929C19.1054 12.4804 19 12.7348 19 13C19 13.2652 19.1054 13.5196 19.2929 13.7071C19.4804 13.8946 19.7348 14 20 14C20.2652 14 20.5196 13.8946 20.7071 13.7071C20.8946 13.5196 21 13.2652 21 13C21 12.7348 20.8946 12.4804 20.7071 12.2929C20.5196 12.1054 20.2652 12 20 12Z" fill="#CE8106"/>
<path d="M41.911 35.4031C41.626 34.5481 40.955 33.8941 40.106 33.4001C39.671 33.7701 39.115 34.0001 38.5 34.0001H9.49998C8.85398 34.0001 8.27098 33.7481 7.82698 33.3461C7.24998 33.9221 6.79998 34.5701 6.62498 35.1551C6.21598 36.5161 5.98998 38.7031 7.87898 38.5721C8.76698 38.5101 9.60298 38.1761 10.305 37.6661C11.399 36.8721 11.853 36.6451 12.671 37.6581C13.466 38.6421 14.099 39.4921 15.109 38.3051C16.157 37.0721 16.291 36.3921 18.083 36.7571C19.959 37.1401 21.533 38.4401 23.447 38.7431C24.379 38.8891 24.784 38.8711 25.337 38.0711C25.788 37.4191 26.199 36.0111 27.071 35.8781C28.493 35.6611 27.42 37.2491 27.379 37.9681C27.273 39.7881 29.272 38.2331 29.805 37.6111C30.138 37.2221 30.63 36.4181 31.236 36.5721C31.896 36.7421 31.558 37.0921 31.702 37.6351C31.836 38.1411 32.288 39.0071 32.899 38.9991C33.648 38.9891 34 37.6671 34.378 37.1311C34.685 36.6991 35.257 35.9481 35.857 35.9851C36.522 36.0271 36.704 36.8581 37.038 37.4031C37.724 38.5221 39.624 39.5551 40.849 38.6611C41.633 38.0881 42.232 36.3651 41.911 35.4031ZM40.105 15.7351H8.06898C7.11098 16.1411 6.38198 16.6521 6.20698 17.2351C5.79498 18.5961 5.85098 19.7021 7.75498 19.5711C8.64898 19.5091 9.49098 19.1751 10.199 18.6651C11.302 17.8711 11.759 17.6441 12.584 18.6571C13.385 19.6411 14.023 20.4911 15.04 19.3041C16.096 18.0711 16.231 17.3911 18.036 17.7561C19.928 18.1391 21.513 19.4391 23.443 19.7421C24.381 19.8881 24.792 19.8701 25.346 19.0701C25.801 18.4181 26.215 17.0101 27.095 16.8771C28.528 16.6601 27.447 18.2481 27.405 18.9671C27.299 20.7871 29.312 19.2321 29.849 18.6101C30.185 18.2211 30.681 17.4171 31.291 17.5711C31.956 17.7411 31.616 18.0911 31.761 18.6341C31.896 19.1401 32.352 20.0061 32.967 19.9981C33.723 19.9881 34.077 18.6661 34.459 18.1301C34.767 17.6981 35.344 16.9471 35.948 16.9841C36.618 17.0261 36.802 17.8571 37.137 18.4021C37.828 19.5211 39.744 20.5541 40.978 19.6601C41.769 19.0871 41.778 18.6971 41.453 17.7351C41.21 17.0071 40.722 16.3341 40.105 15.7351Z" fill="#8BC34A"/>
<path d="M39 29C24 29 18 32 18 32C18 32 14 29 9 29V28H39V29ZM9 24C24 24 30 27 30 27C30 27 34 24 39 24V23H9V24Z" fill="#FFEB3B"/>
</svg>
