<svg width="32" height="32" viewBox="0 0 32 32" fill="none" xmlns="http://www.w3.org/2000/svg">
<rect width="32" height="32" fill="white"/>
<path d="M4.89468 16.5332C5.21232 16.7455 5.54674 16.9226 5.89859 17.0635C5.91558 17.0704 5.93055 17.082 5.94156 17.0967C5.95249 17.1113 5.95919 17.1284 5.96109 17.1465C6.47553 22.3052 10.8171 26.2353 15.9953 26.2373C21.1735 26.2386 25.5176 22.3114 26.0353 17.1533C26.037 17.135 26.0438 17.1173 26.0548 17.1025C26.0658 17.0878 26.0808 17.0762 26.0978 17.0693C26.4498 16.9289 26.785 16.7524 27.1027 16.54C27.1059 16.5379 27.1096 16.5363 27.1134 16.5361C27.1173 16.536 27.1217 16.5371 27.1252 16.5391C27.1283 16.5409 27.131 16.5437 27.133 16.5469C27.1349 16.5503 27.1359 16.5546 27.1359 16.5586C27.0546 19.294 25.9086 21.946 24.005 23.9023C21.8913 26.0739 19.0702 27.2995 15.9953 27.2988C12.9204 27.2975 10.0998 26.0712 7.98745 23.8984C6.08522 21.9409 4.9406 19.2881 4.8605 16.5527C4.86046 16.5488 4.86148 16.5445 4.86343 16.541C4.86545 16.5375 4.86873 16.5342 4.87222 16.5322C4.87554 16.5305 4.87925 16.5292 4.88296 16.5293C4.88691 16.5295 4.89144 16.5309 4.89468 16.5332ZM18.0685 17.7285C18.3306 17.7162 18.578 17.8746 18.6164 18.127C18.7321 18.883 19.0097 19.5697 19.4484 20.1875C19.6994 20.5407 19.2669 21.5325 19.0998 21.7646C19.0342 21.8554 18.8976 22.0338 18.6906 22.2988C18.2038 22.9211 18.0834 23.6742 17.9962 24.4824C17.9702 24.7217 17.8292 24.891 17.5734 24.9902C17.0623 25.1892 16.5308 25.2344 15.9982 25.2344C15.4657 25.2344 14.9347 25.1891 14.423 24.9902C14.1677 24.891 14.0262 24.7217 14.0002 24.4824C13.913 23.6741 13.7928 22.9212 13.3058 22.2988C13.0986 22.0336 12.9621 21.8553 12.8966 21.7646C12.7295 21.5325 12.2979 20.5407 12.549 20.1875C12.9876 19.5697 13.2653 18.883 13.381 18.127C13.42 17.8746 13.6668 17.7162 13.9289 17.7285C14.217 17.7428 14.4666 18.0007 14.4171 18.3232C14.3031 19.0785 14.0522 19.7765 13.6632 20.416C13.6169 20.4926 13.5909 20.5485 13.5861 20.584C13.5594 20.7869 13.7122 21.0799 13.8273 21.2412C14.012 21.4987 14.2357 21.7197 14.3976 21.9902C14.7831 22.6347 14.9212 23.3088 15.0187 24.0547C15.0199 24.064 15.0232 24.0731 15.0294 24.0801C15.0358 24.0871 15.0447 24.0917 15.0539 24.0938C15.3556 24.1581 15.6666 24.1767 15.9982 24.1768C16.3299 24.1768 16.6414 24.1588 16.9425 24.0938C16.9518 24.0918 16.9605 24.0871 16.9669 24.0801C16.9733 24.0731 16.9775 24.0641 16.9787 24.0547C17.0762 23.3087 17.2141 22.6347 17.5998 21.9902C17.7617 21.7197 17.9854 21.4988 18.1701 21.2412C18.2852 21.0799 18.437 20.7868 18.4103 20.584C18.4055 20.5485 18.3803 20.4925 18.3341 20.416C17.9452 19.7765 17.6933 19.0785 17.5793 18.3232C17.5305 18.0007 17.7804 17.7428 18.0685 17.7285ZM16.0002 15.9912C16.8208 15.9912 17.6544 16.0773 18.4503 16.2139C19.1826 16.34 19.0158 17.4072 18.2257 17.2598C17.6336 17.1492 17.084 17.0883 16.5773 17.0762C16.5713 17.0761 16.5643 17.0769 16.5587 17.0791C16.5533 17.0813 16.5483 17.0847 16.5441 17.0889C16.5399 17.093 16.5366 17.0981 16.5343 17.1035C16.532 17.109 16.5305 17.1152 16.5304 17.1211C16.5278 20.1388 16.5283 22.0996 16.5304 23.0029C16.5311 23.3216 16.3097 23.5576 15.9982 23.5576C15.6863 23.5574 15.4656 23.3215 15.4669 23.0029C15.4695 22.0996 15.4702 20.1388 15.4689 17.1211C15.4689 17.1152 15.4683 17.109 15.466 17.1035C15.4636 17.098 15.4595 17.0931 15.4552 17.0889C15.451 17.0848 15.4461 17.0813 15.4406 17.0791C15.435 17.0769 15.429 17.0761 15.423 17.0762C14.9162 17.0879 14.3668 17.1487 13.7746 17.2588C12.9844 17.4064 12.8177 16.3381 13.55 16.2119C14.346 16.076 15.18 15.9912 16.0002 15.9912ZM22.463 10.249C22.7214 9.74256 23.4818 9.94318 23.4601 10.5156C23.457 10.6035 23.4164 10.7225 23.339 10.8721C22.6207 12.2654 21.9244 13.7019 21.2511 15.1807C20.9919 15.7502 20.7646 16.32 20.5695 16.8887C20.5644 16.9036 20.5653 16.9211 20.5714 16.9355C20.5777 16.9499 20.5895 16.9614 20.6037 16.9678C21.2174 17.2421 22.1402 17.5987 22.4572 18.2168C22.5187 18.3373 22.5526 18.5098 22.5587 18.7324C22.5717 19.2074 22.5115 19.7057 22.3781 20.2266C22.2916 20.5627 22.1735 20.8722 21.881 21.0205C21.3809 21.2735 20.8605 20.8779 20.5353 20.5312C19.9906 19.9505 19.586 19.2828 19.3224 18.5283C19.1574 18.0563 19.2468 17.6631 19.3898 17.1416C19.6948 16.0337 20.1857 14.9182 20.6837 13.8682C21.2465 12.6807 21.8396 11.4738 22.463 10.249ZM8.54019 10.5195C8.51816 9.94663 9.27808 9.74668 9.53628 10.2539C10.1596 11.4776 10.7529 12.6827 11.3156 13.8691C11.8137 14.9187 12.3045 16.0332 12.6095 17.1406C12.7526 17.6622 12.842 18.0542 12.6769 18.5264C12.4137 19.2807 12.0095 19.9484 11.465 20.5293C11.1405 20.8753 10.6203 21.2708 10.1203 21.0186C9.82833 20.8703 9.71067 20.5608 9.62417 20.2246C9.49067 19.704 9.43 19.2061 9.44253 18.7314C9.44861 18.5086 9.48254 18.3363 9.5441 18.2158C9.86096 17.5981 10.7834 17.2422 11.3966 16.9678C11.411 16.9613 11.4226 16.9491 11.4289 16.9346C11.435 16.9201 11.435 16.9036 11.4298 16.8887C11.2347 16.3203 11.0075 15.7509 10.7482 15.1816C10.075 13.7038 9.3796 12.2684 8.66128 10.876C8.58369 10.7264 8.54323 10.6075 8.54019 10.5195ZM20.2892 18.0059C20.2859 18.0082 20.2823 18.012 20.2804 18.0156C20.2788 18.0191 20.2784 18.0235 20.2785 18.0273C20.2832 18.1473 20.3102 18.2662 20.3595 18.3818C20.5802 18.8955 20.9003 19.3776 21.3185 19.8271C21.3263 19.8355 21.3367 19.8411 21.3478 19.8438H21.3488C21.3602 19.8463 21.3721 19.846 21.383 19.8418C21.3938 19.8375 21.4037 19.8299 21.4103 19.8203C21.4168 19.8107 21.42 19.7987 21.4201 19.7871V19.5283C21.42 19.499 21.4103 19.4703 21.3927 19.4473L21.0519 19.0029C21.0501 19.0001 21.049 18.9965 21.049 18.9932C21.0492 18.9895 21.0506 18.9852 21.0529 18.9824C21.0552 18.9798 21.0582 18.9773 21.0617 18.9766C21.065 18.9758 21.0692 18.9762 21.0724 18.9775C21.0837 18.9829 21.0956 18.9934 21.1105 19.0029C21.1716 19.042 21.265 19.114 21.3869 19.2236L21.421 19.2402C21.4336 19.2422 21.4466 19.2404 21.4582 19.2354C21.4698 19.2301 21.4805 19.2216 21.4875 19.2109C21.4942 19.2004 21.4971 19.1873 21.4972 19.1748V19.0938C21.4972 19.0698 21.4926 19.0455 21.4835 19.0234C21.4744 19.0015 21.4612 18.9806 21.4445 18.9639L21.257 18.7773C21.2542 18.7749 21.2517 18.7712 21.2511 18.7676C21.2507 18.764 21.2521 18.7599 21.2541 18.7568C21.2561 18.7537 21.2592 18.751 21.2628 18.75L21.2736 18.751C21.3307 18.7713 21.3912 18.8073 21.4552 18.8574C21.4593 18.8606 21.4648 18.8614 21.4699 18.8623L21.4709 18.8633C21.4762 18.8641 21.4815 18.8633 21.4865 18.8613C21.4913 18.8594 21.4958 18.8565 21.4992 18.8525C21.5024 18.8485 21.5051 18.843 21.506 18.8379C21.5168 18.7765 21.5141 18.7163 21.4972 18.6592C21.4909 18.6378 21.4796 18.6176 21.465 18.6016C21.416 18.547 21.3233 18.4841 21.1896 18.4131C20.9643 18.294 20.6722 18.1572 20.3136 18.0039L20.3009 18.002C20.2969 18.0024 20.2926 18.0036 20.2892 18.0059ZM11.6867 18.001C11.3288 18.1539 11.0372 18.2895 10.8127 18.4082C10.6793 18.4792 10.5873 18.5421 10.5382 18.5967C10.5236 18.6127 10.5133 18.6329 10.507 18.6543L10.4914 18.7422C10.4899 18.7716 10.4918 18.8017 10.4972 18.832C10.4982 18.8372 10.5007 18.8426 10.5041 18.8467C10.5074 18.8507 10.5119 18.8536 10.5168 18.8555L10.5324 18.8574C10.5376 18.8567 10.5428 18.8547 10.547 18.8516C10.5791 18.8267 10.6105 18.8056 10.6408 18.7881C10.671 18.7706 10.7002 18.7563 10.7287 18.7461C10.732 18.7448 10.736 18.745 10.7394 18.7461C10.7428 18.7472 10.7463 18.749 10.7482 18.752C10.7501 18.755 10.7506 18.7591 10.7502 18.7627C10.7497 18.7663 10.7479 18.77 10.7453 18.7725L10.5587 18.959C10.525 18.9931 10.506 19.0396 10.506 19.0879V19.168C10.5062 19.1806 10.5098 19.1936 10.5168 19.2041C10.5237 19.2144 10.5337 19.2224 10.5451 19.2275C10.5566 19.2326 10.5697 19.2343 10.5822 19.2324C10.5946 19.2305 10.6069 19.2251 10.6164 19.2168C10.7674 19.0809 10.8722 18.9995 10.9298 18.9727C10.933 18.9714 10.9363 18.9709 10.9396 18.9717C10.9431 18.9725 10.9471 18.9748 10.9494 18.9775C10.9514 18.9802 10.953 18.9839 10.9533 18.9873C10.9534 18.9907 10.9521 18.9942 10.9503 18.9971L10.6105 19.4395C10.5928 19.4626 10.5832 19.4911 10.5832 19.5205V19.7793C10.5834 19.7908 10.5874 19.8021 10.5939 19.8115C10.6005 19.821 10.6095 19.8288 10.6203 19.833C10.6311 19.8372 10.6431 19.8374 10.6544 19.835C10.6657 19.8325 10.6758 19.8266 10.6837 19.8184C10.9444 19.5382 11.1671 19.2456 11.3507 18.9404C11.4241 18.8184 11.4918 18.6944 11.5529 18.5684C11.5835 18.5053 11.6123 18.441 11.6398 18.377C11.6891 18.2618 11.7155 18.1439 11.7199 18.0244C11.72 18.0204 11.7197 18.0163 11.7179 18.0127C11.7162 18.0092 11.7133 18.0062 11.7101 18.0039C11.7068 18.0015 11.7025 17.9995 11.6984 17.999C11.6944 17.9986 11.6904 17.9995 11.6867 18.001ZM27.0627 12.3682C27.3378 12.0569 27.8502 12.1448 27.9777 12.54C28.0111 12.6432 28.007 12.793 27.965 12.9893C27.6548 14.4493 27.0455 15.6447 25.5373 16.1416C25.0996 16.2855 24.664 16.3929 24.2306 16.4648C23.0448 16.662 22.2948 16.7762 21.9816 16.8066C21.2545 16.8775 21.1683 15.8665 21.8752 15.7578C22.1388 15.7175 22.5442 15.6576 23.091 15.5791C23.1115 15.5761 23.1314 15.5678 23.1476 15.5547C23.1636 15.5416 23.1755 15.5243 23.1828 15.5049C23.4538 14.7661 23.6599 14.0283 23.8 13.293C23.8364 13.1028 23.8737 12.9804 23.9123 12.9258C24.1243 12.6247 24.5346 12.6208 24.7707 12.8984C24.8799 13.0271 24.8816 13.2417 24.8537 13.3965C24.7422 14.0225 24.5858 14.6515 24.3859 15.2832C24.3842 15.2885 24.3847 15.2943 24.3859 15.2998C24.387 15.3052 24.3891 15.3103 24.3927 15.3145C24.3964 15.3185 24.4013 15.3215 24.4064 15.3232C24.4116 15.3249 24.4176 15.3253 24.423 15.3242C24.8522 15.2405 25.2491 15.093 25.6125 14.8818C26.4128 14.4168 26.7299 13.5888 26.925 12.7246C26.9661 12.5461 27.0119 12.4271 27.0627 12.3682ZM4.02163 12.5527C4.14781 12.158 4.65961 12.069 4.93472 12.3799C4.98584 12.4384 5.03223 12.5564 5.07339 12.7344C5.27043 13.5973 5.58846 14.4236 6.38882 14.8867C6.75214 15.0966 7.14852 15.2434 7.5773 15.3262C7.58273 15.3272 7.58866 15.326 7.5939 15.3242C7.59902 15.3224 7.60397 15.3195 7.60757 15.3154C7.61113 15.3113 7.61328 15.3061 7.61441 15.3008C7.61548 15.2955 7.61503 15.2903 7.61343 15.2852C7.41269 14.6547 7.25643 14.0266 7.1437 13.4014C7.11574 13.2472 7.11615 13.0321 7.22476 12.9033C7.46019 12.6258 7.87051 12.6291 8.08316 12.9287C8.12174 12.9833 8.15862 13.1061 8.19546 13.2959C8.33681 14.03 8.54427 14.7658 8.81656 15.5029C8.82384 15.5225 8.83651 15.5396 8.85269 15.5527C8.8688 15.5657 8.88792 15.5741 8.90835 15.5771C9.45423 15.6543 9.85958 15.713 10.1232 15.7529C10.8293 15.8597 10.7451 16.8697 10.0187 16.8008C9.70597 16.7708 8.95724 16.659 7.77261 16.4648C7.33953 16.3937 6.90437 16.2862 6.46695 16.1436C4.95939 15.6506 4.34878 14.4585 4.03531 13.001C3.99336 12.8053 3.98878 12.6559 4.02163 12.5527ZM18.9084 11.6289C19.1691 11.5161 19.4723 11.6357 19.5851 11.8965L20.2199 13.3652C20.3325 13.6259 20.213 13.9282 19.9523 14.041L19.9171 14.0566C19.6565 14.1694 19.3533 14.0497 19.2404 13.7891L18.6046 12.3203C18.4921 12.0598 18.6119 11.7575 18.8722 11.6445L18.9084 11.6289ZM12.6066 11.6904C12.9525 11.4082 13.444 11.7134 13.4396 12.1328C13.4387 12.2126 13.3959 12.334 13.3127 12.4971C13.242 12.6367 13.1588 12.82 13.0617 13.0459C12.9642 13.2716 12.8885 13.4576 12.8361 13.6045C12.7746 13.7769 12.7156 13.8912 12.6584 13.9463C12.3566 14.2383 11.7973 14.091 11.7648 13.6455C11.7422 13.345 11.9843 12.848 12.0812 12.623C12.1788 12.3973 12.3733 11.8804 12.6066 11.6904ZM15.9992 5C20.3512 5.00017 24.2553 7.52511 26.1017 11.4277C26.123 11.4721 26.13 11.5224 26.1232 11.5713C26.0495 12.1236 25.9057 12.6652 25.6916 13.1963C25.6895 13.2011 25.6862 13.2052 25.6818 13.208C25.6775 13.2107 25.6722 13.2121 25.6671 13.2119C25.6622 13.2117 25.6575 13.21 25.6535 13.207C25.6493 13.2039 25.6463 13.1992 25.6447 13.1943C24.3115 8.95538 20.4612 6.06757 15.9992 6.06738C11.537 6.06803 7.68627 8.95619 6.35367 13.1953C6.35206 13.2001 6.34887 13.204 6.34488 13.207C6.34088 13.2101 6.3362 13.2126 6.3312 13.2129C6.32623 13.2131 6.32081 13.2116 6.31656 13.209C6.31229 13.2063 6.30881 13.2019 6.30679 13.1973C6.09265 12.6663 5.9479 12.1245 5.87417 11.5723C5.86729 11.5238 5.87488 11.4739 5.89566 11.4297C7.74205 7.52615 11.6463 5.00065 15.9992 5Z" fill="#359C61"/>
</svg>
