<svg width="64" height="64" viewBox="0 0 64 64" fill="none" xmlns="http://www.w3.org/2000/svg">
<g clip-path="url(#clip0_142_1050)">
<g filter="url(#filter0_ii_142_1050)">
<path fill-rule="evenodd" clip-rule="evenodd" d="M23.0706 40.2726C24.671 40.7014 25.6208 42.3464 25.1919 43.9468L22.6038 53.606C22.1749 55.2064 20.5299 56.1562 18.9295 55.7274C17.3291 55.2985 16.3794 53.6535 16.8082 52.0531L19.3964 42.3939C19.8252 40.7935 21.4702 39.8437 23.0706 40.2726Z" fill="url(#paint0_linear_142_1050)"/>
</g>
<foreignObject x="-2.03125" y="-4.125" width="68.0625" height="53.0518"><div xmlns="http://www.w3.org/1999/xhtml" style="backdrop-filter:blur(3.09px);clip-path:url(#bgblur_1_142_1050_clip_path);height:100%;width:100%"></div></foreignObject><g filter="url(#filter1_i_142_1050)" data-figma-bg-blur-radius="6.1875">
<path d="M30.4531 2.0625C38.1081 2.0625 44.6484 6.8291 47.2715 13.5557C54.3795 14.572 59.8438 20.6842 59.8438 28.0732C59.8436 36.1717 53.2796 42.7358 45.1816 42.7383V42.7393H16.9941V42.7383C16.9926 42.7383 16.9908 42.7393 16.9893 42.7393C9.90175 42.7391 4.15625 36.9938 4.15625 29.9062C4.15625 24.3814 7.6473 19.6715 12.5439 17.8633C13.6497 8.95619 21.2467 2.0625 30.4531 2.0625Z" fill="url(#paint1_radial_142_1050)"/>
</g>
<mask id="mask0_142_1050" style="mask-type:alpha" maskUnits="userSpaceOnUse" x="4" y="2" width="56" height="41">
<path d="M30.4531 2.0625C38.1081 2.0625 44.6484 6.8291 47.2715 13.5557C54.3795 14.572 59.8438 20.6842 59.8438 28.0732C59.8436 36.1717 53.2796 42.7358 45.1816 42.7383V42.7393H16.9941V42.7383C16.9926 42.7383 16.9908 42.7393 16.9893 42.7393C9.90175 42.7391 4.15625 36.9938 4.15625 29.9062C4.15625 24.3814 7.6473 19.6715 12.5439 17.8633C13.6497 8.95619 21.2467 2.0625 30.4531 2.0625Z" fill="url(#paint2_radial_142_1050)"/>
</mask>
<g mask="url(#mask0_142_1050)">
<g filter="url(#filter2_d_142_1050)">
<mask id="mask1_142_1050" style="mask-type:alpha" maskUnits="userSpaceOnUse" x="12" y="2" width="37" height="37">
<path d="M30.4529 2.0625C40.4199 2.0625 48.4998 10.1424 48.4998 20.1094C48.4998 30.0764 40.4199 38.1562 30.4529 38.1562C29.2976 38.1562 28.1679 38.0464 27.073 37.8389C28.7933 35.6552 29.823 32.9019 29.823 29.9062C29.823 22.8187 24.0775 17.0734 16.99 17.0732C15.4274 17.0732 13.9296 17.3519 12.5447 17.8633C13.6504 8.95632 21.2466 2.06265 30.4529 2.0625Z" fill="#09244B"/>
</mask>
<g mask="url(#mask1_142_1050)">
<g filter="url(#filter3_i_142_1050)" style="mix-blend-mode:soft-light">
<circle cx="30.4531" cy="20.1094" r="18.0469" fill="url(#paint3_linear_142_1050)"/>
</g>
</g>
</g>
<g filter="url(#filter4_di_142_1050)" style="mix-blend-mode:soft-light">
<circle cx="16.9896" cy="29.9063" r="12.8333" fill="url(#paint4_linear_142_1050)" shape-rendering="crispEdges"/>
</g>
<g opacity="0.7" style="mix-blend-mode:soft-light">
<circle cx="45.1772" cy="28.0729" r="14.6667" fill="url(#paint5_linear_142_1050)"/>
</g>
</g>
<g filter="url(#filter5_ii_142_1050)">
<path fill-rule="evenodd" clip-rule="evenodd" d="M32.639 46.2384C34.2394 46.6672 35.1891 48.3122 34.7603 49.9126L32.6898 57.64C32.2609 59.2404 30.6159 60.1902 29.0155 59.7613C27.4151 59.3325 26.4654 57.6875 26.8942 56.0871L28.9648 48.3597C29.3936 46.7593 31.0386 45.8095 32.639 46.2384Z" fill="url(#paint6_linear_142_1050)"/>
</g>
<g filter="url(#filter6_ii_142_1050)">
<path fill-rule="evenodd" clip-rule="evenodd" d="M44.0706 40.2726C45.671 40.7014 46.6208 42.3464 46.1919 43.9468L43.6038 53.606C43.1749 55.2064 41.5299 56.1562 39.9295 55.7274C38.3291 55.2985 37.3794 53.6535 37.8082 52.0531L40.3964 42.3939C40.8252 40.7935 42.4702 39.8437 44.0706 40.2726Z" fill="url(#paint7_linear_142_1050)"/>
</g>
</g>
<defs>
<filter id="filter0_ii_142_1050" x="16.7053" y="39.1697" width="8.5896" height="18.6606" filterUnits="userSpaceOnUse" color-interpolation-filters="sRGB">
<feFlood flood-opacity="0" result="BackgroundImageFix"/>
<feBlend mode="normal" in="SourceGraphic" in2="BackgroundImageFix" result="shape"/>
<feColorMatrix in="SourceAlpha" type="matrix" values="0 0 0 0 0 0 0 0 0 0 0 0 0 0 0 0 0 0 127 0" result="hardAlpha"/>
<feOffset dy="-1"/>
<feGaussianBlur stdDeviation="1"/>
<feComposite in2="hardAlpha" operator="arithmetic" k2="-1" k3="1"/>
<feColorMatrix type="matrix" values="0 0 0 0 0.98 0 0 0 0 0.98 0 0 0 0 0.98 0 0 0 0.5 0"/>
<feBlend mode="normal" in2="shape" result="effect1_innerShadow_142_1050"/>
<feColorMatrix in="SourceAlpha" type="matrix" values="0 0 0 0 0 0 0 0 0 0 0 0 0 0 0 0 0 0 127 0" result="hardAlpha"/>
<feOffset dy="2"/>
<feGaussianBlur stdDeviation="1.86667"/>
<feComposite in2="hardAlpha" operator="arithmetic" k2="-1" k3="1"/>
<feColorMatrix type="matrix" values="0 0 0 0 0.133096 0 0 0 0 0.717059 0 0 0 0 0.938432 0 0 0 0.7 0"/>
<feBlend mode="normal" in2="effect1_innerShadow_142_1050" result="effect2_innerShadow_142_1050"/>
</filter>
<filter id="filter1_i_142_1050" x="-2.03125" y="-4.125" width="68.0625" height="53.0518" filterUnits="userSpaceOnUse" color-interpolation-filters="sRGB">
<feFlood flood-opacity="0" result="BackgroundImageFix"/>
<feBlend mode="normal" in="SourceGraphic" in2="BackgroundImageFix" result="shape"/>
<feColorMatrix in="SourceAlpha" type="matrix" values="0 0 0 0 0 0 0 0 0 0 0 0 0 0 0 0 0 0 127 0" result="hardAlpha"/>
<feOffset dx="0.916667" dy="3.09833"/>
<feGaussianBlur stdDeviation="3.09375"/>
<feComposite in2="hardAlpha" operator="arithmetic" k2="-1" k3="1"/>
<feColorMatrix type="matrix" values="0 0 0 0 1 0 0 0 0 1 0 0 0 0 1 0 0 0 0.95 0"/>
<feBlend mode="normal" in2="shape" result="effect1_innerShadow_142_1050"/>
</filter>
<clipPath id="bgblur_1_142_1050_clip_path" transform="translate(2.03125 4.125)"><path d="M30.4531 2.0625C38.1081 2.0625 44.6484 6.8291 47.2715 13.5557C54.3795 14.572 59.8438 20.6842 59.8438 28.0732C59.8436 36.1717 53.2796 42.7358 45.1816 42.7383V42.7393H16.9941V42.7383C16.9926 42.7383 16.9908 42.7393 16.9893 42.7393C9.90175 42.7391 4.15625 36.9938 4.15625 29.9062C4.15625 24.3814 7.6473 19.6715 12.5439 17.8633C13.6497 8.95619 21.2467 2.0625 30.4531 2.0625Z"/>
</clipPath><filter id="filter2_d_142_1050" x="9.79468" y="-7.10417" width="46.9551" height="47.0938" filterUnits="userSpaceOnUse" color-interpolation-filters="sRGB">
<feFlood flood-opacity="0" result="BackgroundImageFix"/>
<feColorMatrix in="SourceAlpha" type="matrix" values="0 0 0 0 0 0 0 0 0 0 0 0 0 0 0 0 0 0 127 0" result="hardAlpha"/>
<feOffset dx="2.75" dy="-3.66667"/>
<feGaussianBlur stdDeviation="2.75"/>
<feComposite in2="hardAlpha" operator="out"/>
<feColorMatrix type="matrix" values="0 0 0 0 0 0 0 0 0 0 0 0 0 0 0 0 0 0 0.4 0"/>
<feBlend mode="soft-light" in2="BackgroundImageFix" result="effect1_dropShadow_142_1050"/>
<feBlend mode="normal" in="SourceGraphic" in2="effect1_dropShadow_142_1050" result="shape"/>
</filter>
<filter id="filter3_i_142_1050" x="12.4062" y="2.0625" width="39.1875" height="39.1875" filterUnits="userSpaceOnUse" color-interpolation-filters="sRGB">
<feFlood flood-opacity="0" result="BackgroundImageFix"/>
<feBlend mode="normal" in="SourceGraphic" in2="BackgroundImageFix" result="shape"/>
<feColorMatrix in="SourceAlpha" type="matrix" values="0 0 0 0 0 0 0 0 0 0 0 0 0 0 0 0 0 0 127 0" result="hardAlpha"/>
<feOffset dx="3.09375" dy="3.09375"/>
<feGaussianBlur stdDeviation="3.09375"/>
<feComposite in2="hardAlpha" operator="arithmetic" k2="-1" k3="1"/>
<feColorMatrix type="matrix" values="0 0 0 0 1 0 0 0 0 1 0 0 0 0 1 0 0 0 0.7 0"/>
<feBlend mode="normal" in2="shape" result="effect1_innerShadow_142_1050"/>
</filter>
<filter id="filter4_di_142_1050" x="-3.17708" y="4.23966" width="36.6667" height="41.3519" filterUnits="userSpaceOnUse" color-interpolation-filters="sRGB">
<feFlood flood-opacity="0" result="BackgroundImageFix"/>
<feColorMatrix in="SourceAlpha" type="matrix" values="0 0 0 0 0 0 0 0 0 0 0 0 0 0 0 0 0 0 127 0" result="hardAlpha"/>
<feOffset dx="-1.83333" dy="-7.33333"/>
<feGaussianBlur stdDeviation="2.75"/>
<feComposite in2="hardAlpha" operator="out"/>
<feColorMatrix type="matrix" values="0 0 0 0 0 0 0 0 0 0 0 0 0 0 0 0 0 0 0.3 0"/>
<feBlend mode="normal" in2="BackgroundImageFix" result="effect1_dropShadow_142_1050"/>
<feBlend mode="normal" in="SourceGraphic" in2="effect1_dropShadow_142_1050" result="shape"/>
<feColorMatrix in="SourceAlpha" type="matrix" values="0 0 0 0 0 0 0 0 0 0 0 0 0 0 0 0 0 0 127 0" result="hardAlpha"/>
<feOffset dx="2.85185" dy="2.85185"/>
<feGaussianBlur stdDeviation="2.85185"/>
<feComposite in2="hardAlpha" operator="arithmetic" k2="-1" k3="1"/>
<feColorMatrix type="matrix" values="0 0 0 0 1 0 0 0 0 1 0 0 0 0 1 0 0 0 0.7 0"/>
<feBlend mode="normal" in2="shape" result="effect2_innerShadow_142_1050"/>
</filter>
<filter id="filter5_ii_142_1050" x="26.7913" y="45.1355" width="8.07202" height="16.7288" filterUnits="userSpaceOnUse" color-interpolation-filters="sRGB">
<feFlood flood-opacity="0" result="BackgroundImageFix"/>
<feBlend mode="normal" in="SourceGraphic" in2="BackgroundImageFix" result="shape"/>
<feColorMatrix in="SourceAlpha" type="matrix" values="0 0 0 0 0 0 0 0 0 0 0 0 0 0 0 0 0 0 127 0" result="hardAlpha"/>
<feOffset dy="-1"/>
<feGaussianBlur stdDeviation="1"/>
<feComposite in2="hardAlpha" operator="arithmetic" k2="-1" k3="1"/>
<feColorMatrix type="matrix" values="0 0 0 0 0.98 0 0 0 0 0.98 0 0 0 0 0.98 0 0 0 0.5 0"/>
<feBlend mode="normal" in2="shape" result="effect1_innerShadow_142_1050"/>
<feColorMatrix in="SourceAlpha" type="matrix" values="0 0 0 0 0 0 0 0 0 0 0 0 0 0 0 0 0 0 127 0" result="hardAlpha"/>
<feOffset dy="2"/>
<feGaussianBlur stdDeviation="1.86667"/>
<feComposite in2="hardAlpha" operator="arithmetic" k2="-1" k3="1"/>
<feColorMatrix type="matrix" values="0 0 0 0 0.133096 0 0 0 0 0.717059 0 0 0 0 0.938432 0 0 0 0.7 0"/>
<feBlend mode="normal" in2="effect1_innerShadow_142_1050" result="effect2_innerShadow_142_1050"/>
</filter>
<filter id="filter6_ii_142_1050" x="37.7053" y="39.1697" width="8.5896" height="18.6606" filterUnits="userSpaceOnUse" color-interpolation-filters="sRGB">
<feFlood flood-opacity="0" result="BackgroundImageFix"/>
<feBlend mode="normal" in="SourceGraphic" in2="BackgroundImageFix" result="shape"/>
<feColorMatrix in="SourceAlpha" type="matrix" values="0 0 0 0 0 0 0 0 0 0 0 0 0 0 0 0 0 0 127 0" result="hardAlpha"/>
<feOffset dy="-1"/>
<feGaussianBlur stdDeviation="1"/>
<feComposite in2="hardAlpha" operator="arithmetic" k2="-1" k3="1"/>
<feColorMatrix type="matrix" values="0 0 0 0 0.98 0 0 0 0 0.98 0 0 0 0 0.98 0 0 0 0.5 0"/>
<feBlend mode="normal" in2="shape" result="effect1_innerShadow_142_1050"/>
<feColorMatrix in="SourceAlpha" type="matrix" values="0 0 0 0 0 0 0 0 0 0 0 0 0 0 0 0 0 0 127 0" result="hardAlpha"/>
<feOffset dy="2"/>
<feGaussianBlur stdDeviation="1.86667"/>
<feComposite in2="hardAlpha" operator="arithmetic" k2="-1" k3="1"/>
<feColorMatrix type="matrix" values="0 0 0 0 0.133096 0 0 0 0 0.717059 0 0 0 0 0.938432 0 0 0 0.7 0"/>
<feBlend mode="normal" in2="effect1_innerShadow_142_1050" result="effect2_innerShadow_142_1050"/>
</filter>
<linearGradient id="paint0_linear_142_1050" x1="23.0706" y1="40.2726" x2="13.7945" y2="45.9524" gradientUnits="userSpaceOnUse">
<stop stop-color="#4ECCFD"/>
<stop offset="1" stop-color="#A4E2FA" stop-opacity="0.7"/>
</linearGradient>
<radialGradient id="paint1_radial_142_1050" cx="0" cy="0" r="1" gradientTransform="matrix(-1.22064e-07 32.0831 -36.6184 0.00162436 26.0417 10.0833)" gradientUnits="userSpaceOnUse">
<stop stop-color="#EFF6FF" stop-opacity="0.9"/>
<stop offset="1" stop-color="#89C8F5" stop-opacity="0.8"/>
</radialGradient>
<radialGradient id="paint2_radial_142_1050" cx="0" cy="0" r="1" gradientUnits="userSpaceOnUse" gradientTransform="translate(34.5781 15.4113) rotate(90) scale(23.2029 25.7813)">
<stop offset="0.239583" stop-color="#C8E0FF"/>
<stop offset="1" stop-color="#89C8F5"/>
</radialGradient>
<linearGradient id="paint3_linear_142_1050" x1="30.4531" y1="2.0625" x2="30.4531" y2="38.1562" gradientUnits="userSpaceOnUse">
<stop stop-color="#7DAAE6"/>
<stop offset="1" stop-color="#7DAAE5" stop-opacity="0"/>
</linearGradient>
<linearGradient id="paint4_linear_142_1050" x1="16.9896" y1="17.073" x2="16.9896" y2="42.7397" gradientUnits="userSpaceOnUse">
<stop stop-color="#7DAAE6"/>
<stop offset="1" stop-color="#7DAAE5" stop-opacity="0"/>
</linearGradient>
<linearGradient id="paint5_linear_142_1050" x1="59.8438" y1="28.9896" x2="42.8855" y2="28.0729" gradientUnits="userSpaceOnUse">
<stop stop-color="#96CDF6"/>
<stop offset="1" stop-color="#96CDF6" stop-opacity="0"/>
</linearGradient>
<linearGradient id="paint6_linear_142_1050" x1="32.639" y1="46.2384" x2="24.3978" y2="52.0682" gradientUnits="userSpaceOnUse">
<stop stop-color="#4ECCFD"/>
<stop offset="1" stop-color="#A4E2FA" stop-opacity="0.7"/>
</linearGradient>
<linearGradient id="paint7_linear_142_1050" x1="44.0706" y1="40.2726" x2="34.7945" y2="45.9524" gradientUnits="userSpaceOnUse">
<stop stop-color="#4ECCFD"/>
<stop offset="1" stop-color="#A4E2FA" stop-opacity="0.7"/>
</linearGradient>
<clipPath id="clip0_142_1050">
<rect width="64" height="64" fill="white"/>
</clipPath>
</defs>
</svg>
